# xmcd CD database file
#
# Track frame offsets:
#	150
#	9355
#	21291
#	31295
#	43544
#	55496
#	67191
#	77631
#	89140
#	98488
#	108823
#	117757
#
# Disc length: 1800 seconds
#
# Revision: 1
# Processed by: cddbd v1.5.2PL0 Copyright (c) Steve Scherf et al.
# Submitted via: CDex 1.51
#
DISCID=9207060c
DTITLE=Trev Warner - Walkin' A Fine Line
DYEAR=2003
DGENRE=Bluegrass
TTITLE0=Livin' The Honky Tonk Life
TTITLE1=Southern Girl
TTITLE2=Outback Of My Mind
TTITLE3=Peel St Pickin'
TTITLE4=Walkin' A Fine Line
TTITLE5=Journey's End
TTITLE6=Get That Cat
TTITLE7=The Other Side Of Town
TTITLE8=Breakaway
TTITLE9=Maybe Its Time
TTITLE10=Lonesome Mandolin
TTITLE11=Suvla Bay
EXTD=YEAR: 2003
EXTT0=
EXTT1=
EXTT2=
EXTT3=
EXTT4=
EXTT5=
EXTT6=
EXTT7=
EXTT8=
EXTT9=
EXTT10=
EXTT11=
PLAYORDER=
